<svg width="49" height="75" viewBox="0 0 49 75" fill="none" xmlns="http://www.w3.org/2000/svg">
<path d="M2.88037 57.9392H12.223H36.1636H45.5062C47.0633 57.9392 49.5602 57.889 46.674 53.5475C43.7544 49.1559 38.8884 43.7186 37.3313 41H12.223C8.71955 46.019 4.63215 51.038 1.71254 55.4297C-0.40808 58.6195 2.88037 57.9392 2.88037 57.9392Z" fill="#423084" stroke="black"/>
<path d="M24.708 63.9995H16.0435C12.5776 63.9995 12 62.7886 12 58.5476V24.6245C12 13.7212 18.9316 4.02885 24.708 1C30.4844 4.02885 37.9937 13.7212 37.9937 24.6245V58.5476C38.0828 62.726 37.2554 64.0283 33.9502 63.9995C30.6451 63.9707 24.708 63.9995 24.708 63.9995Z" fill="#503C9B" stroke="black"/>
<path d="M31.5 18C31.5 22.173 28.3361 25.5 24.5 25.5C20.6639 25.5 17.5 22.173 17.5 18C17.5 13.827 20.6639 10.5 24.5 10.5C28.3361 10.5 31.5 13.827 31.5 18Z" fill="#D9D9D9" stroke="black"/>
<circle cx="25.5" cy="16.5" r="4" fill="black" stroke="black"/>
<path d="M13.2324 71.6471L17.3511 64H32.6489L36.7676 71.6471C36.7676 71.6471 37.9443 74 35.0024 74H25H14.9976C12.0557 74 13.2324 71.6471 13.2324 71.6471Z" fill="#423084" stroke="black"/>
<circle cx="25" cy="45" r="2" fill="#423084" stroke="black" stroke-width="0.5"/>
<circle cx="25" cy="51" r="2" fill="#423084" stroke="black" stroke-width="0.5"/>
<circle cx="25" cy="57" r="2" fill="#423084" stroke="black" stroke-width="0.5"/>
</svg>
